<svg width="255" height="255" viewBox="0 0 255 255" fill="none" xmlns="http://www.w3.org/2000/svg">
<rect width="255" height="255" fill="white"/>
<g clip-path="url(#clip0_55_42)">
<path d="M42.5745 128.648L31.3401 140.136V156.256H22.5V94H31.3401V128.834L64.859 94H74.9883L48.6521 121.978L76.83 156.256H66.5165L42.5745 128.648Z" fill="#FF6060"/>
<path d="M141.289 151.253L144.789 144.583C148.84 147.362 155.102 149.401 161.18 149.401C169.099 149.401 172.23 146.992 172.23 142.916C172.23 132.354 142.578 141.433 142.578 122.719C142.578 114.196 150.129 108.638 162.1 108.638C168.178 108.638 175.176 110.305 179.228 112.899L175.545 119.57C171.309 116.79 166.705 115.864 162.1 115.864C154.734 115.864 151.05 118.643 151.05 122.349C151.05 133.466 180.702 124.387 180.702 142.73C180.702 151.253 172.966 156.627 160.443 156.627C152.892 156.812 145.157 154.403 141.289 151.253Z" fill="#FF6060"/>
<path d="M232.822 127.722V156.256H224.718V149.956C221.956 154.218 216.615 156.627 209.248 156.627C198.566 156.627 191.936 150.883 191.936 142.73C191.936 135.134 196.724 129.019 210.721 129.019H224.166V127.352C224.166 120.125 219.93 116.049 211.642 116.049C206.117 116.049 200.408 118.087 196.724 121.052L193.225 114.567C198.014 110.676 205.012 108.452 212.563 108.452C225.639 108.638 232.822 114.937 232.822 127.722ZM224.35 141.804V135.134H211.274C202.802 135.134 200.408 138.469 200.408 142.36C200.408 146.992 204.275 149.956 210.721 149.956C217.167 150.142 222.324 147.362 224.35 141.804Z" fill="#FF6060"/>
<path d="M114.032 143.842V156.441L119.373 153.292V140.692L114.032 143.842Z" fill="#FF6060"/>
<path d="M128.766 128.463L106.85 115.678L94.6944 108.638L82.7234 129.575L82.9076 149.215L104.64 162L106.85 160.703V142.174L116.611 124.943L126.556 130.687V149.215L128.766 147.918V128.463Z" fill="#FF6060"/>
</g>
<defs>
<clipPath id="clip0_55_42">
<rect width="211" height="68" fill="white" transform="translate(22 94)"/>
</clipPath>
</defs>
</svg>
