<svg width="1024" height="1024" viewBox="0 0 1024 1024" fill="none" xmlns="http://www.w3.org/2000/svg">
<g clip-path="url(#clip0_40_31)">
<rect y="25" width="999" height="999" rx="499.5" fill="#C084FC"/>
<g filter="url(#filter0_f_40_31)">
<rect x="103" y="156" width="369" height="369" rx="184.5" fill="#38BDF8" fill-opacity="0.2"/>
</g>
<g filter="url(#filter1_f_40_31)">
<rect x="410" y="397" width="501" height="501" rx="250.5" fill="#FDE047" fill-opacity="0.2"/>
</g>
<g filter="url(#filter2_f_40_31)">
<rect x="512" y="173" width="419" height="419" rx="209.5" fill="#A3E635" fill-opacity="0.2"/>
</g>
<g filter="url(#filter3_d_40_31)">
<path d="M517.8 810.6C476.733 810.6 439.933 803.933 407.4 790.6C374.867 777.267 348.733 757.533 329 731.4C309.8 705.267 299.667 673.8 298.6 637H444.2C446.333 657.8 453.533 673.8 465.8 685C478.067 695.667 494.067 701 513.8 701C534.067 701 550.067 696.467 561.8 687.4C573.533 677.8 579.4 664.733 579.4 648.2C579.4 634.333 574.6 622.867 565 613.8C555.933 604.733 544.467 597.267 530.6 591.4C517.267 585.533 498.067 578.867 473 571.4C436.733 560.2 407.133 549 384.2 537.8C361.267 526.6 341.533 510.067 325 488.2C308.467 466.333 300.2 437.8 300.2 402.6C300.2 350.333 319.133 309.533 357 280.2C394.867 250.333 444.2 235.4 505 235.4C566.867 235.4 616.733 250.333 654.6 280.2C692.467 309.533 712.733 350.6 715.4 403.4H567.4C566.333 385.267 559.667 371.133 547.4 361C535.133 350.333 519.4 345 500.2 345C483.667 345 470.333 349.533 460.2 358.6C450.067 367.133 445 379.667 445 396.2C445 414.333 453.533 428.467 470.6 438.6C487.667 448.733 514.333 459.667 550.6 471.4C586.867 483.667 616.2 495.4 638.6 506.6C661.533 517.8 681.267 534.067 697.8 555.4C714.333 576.733 722.6 604.2 722.6 637.8C722.6 669.8 714.333 698.867 697.8 725C681.8 751.133 658.333 771.933 627.4 787.4C596.467 802.867 559.933 810.6 517.8 810.6Z" fill="#E9E9E9"/>
</g>
</g>
<defs>
<filter id="filter0_f_40_31" x="23" y="76" width="529" height="529" filterUnits="userSpaceOnUse" color-interpolation-filters="sRGB">
<feFlood flood-opacity="0" result="BackgroundImageFix"/>
<feBlend mode="normal" in="SourceGraphic" in2="BackgroundImageFix" result="shape"/>
<feGaussianBlur stdDeviation="40" result="effect1_foregroundBlur_40_31"/>
</filter>
<filter id="filter1_f_40_31" x="330" y="317" width="661" height="661" filterUnits="userSpaceOnUse" color-interpolation-filters="sRGB">
<feFlood flood-opacity="0" result="BackgroundImageFix"/>
<feBlend mode="normal" in="SourceGraphic" in2="BackgroundImageFix" result="shape"/>
<feGaussianBlur stdDeviation="40" result="effect1_foregroundBlur_40_31"/>
</filter>
<filter id="filter2_f_40_31" x="432" y="93" width="579" height="579" filterUnits="userSpaceOnUse" color-interpolation-filters="sRGB">
<feFlood flood-opacity="0" result="BackgroundImageFix"/>
<feBlend mode="normal" in="SourceGraphic" in2="BackgroundImageFix" result="shape"/>
<feGaussianBlur stdDeviation="40" result="effect1_foregroundBlur_40_31"/>
</filter>
<filter id="filter3_d_40_31" x="191.6" y="136.4" width="638" height="789.2" filterUnits="userSpaceOnUse" color-interpolation-filters="sRGB">
<feFlood flood-opacity="0" result="BackgroundImageFix"/>
<feColorMatrix in="SourceAlpha" type="matrix" values="0 0 0 0 0 0 0 0 0 0 0 0 0 0 0 0 0 0 127 0" result="hardAlpha"/>
<feOffset dy="8"/>
<feGaussianBlur stdDeviation="53.5"/>
<feComposite in2="hardAlpha" operator="out"/>
<feColorMatrix type="matrix" values="0 0 0 0 0 0 0 0 0 0 0 0 0 0 0 0 0 0 0.25 0"/>
<feBlend mode="normal" in2="BackgroundImageFix" result="effect1_dropShadow_40_31"/>
<feBlend mode="normal" in="SourceGraphic" in2="effect1_dropShadow_40_31" result="shape"/>
</filter>
<clipPath id="clip0_40_31">
<rect width="1024" height="1024" fill="white"/>
</clipPath>
</defs>
</svg>
