<svg width="250" height="250" viewBox="0 0 250 250" fill="none" xmlns="http://www.w3.org/2000/svg">
<rect width="250" height="250" fill="white"/>
<path d="M27.62 129.26L32.24 117.6H38.08V118.4C37.64 118.4 37.28 118.447 37 118.54C36.7333 118.62 36.5267 118.773 36.38 119C36.2333 119.227 36.1333 119.54 36.08 119.94C36.04 120.327 36.02 120.82 36.02 121.42V129.18C36.02 129.847 36.0467 130.373 36.1 130.76C36.1533 131.147 36.26 131.447 36.42 131.66C36.58 131.873 36.8067 132.013 37.1 132.08C37.4067 132.147 37.8067 132.187 38.3 132.2V133H30.78V132.2C31.2733 132.187 31.6667 132.147 31.96 132.08C32.2667 132 32.5 131.86 32.66 131.66C32.8333 131.46 32.9467 131.18 33 130.82C33.0533 130.447 33.08 129.947 33.08 129.32V119.96H32.98L27.6 133.2H26.12L20.56 119.96H20.48V129.18C20.48 129.847 20.5066 130.373 20.56 130.76C20.6133 131.147 20.72 131.447 20.88 131.66C21.04 131.873 21.2666 132.013 21.56 132.08C21.8666 132.147 22.2666 132.187 22.76 132.2V133H16.6V132.2C17.0933 132.187 17.4933 132.147 17.8 132.08C18.1066 132 18.34 131.86 18.5 131.66C18.6733 131.46 18.7866 131.18 18.84 130.82C18.8933 130.447 18.92 129.947 18.92 129.32V121.28C18.92 120.72 18.8933 120.253 18.84 119.88C18.7866 119.507 18.6866 119.213 18.54 119C18.3933 118.773 18.18 118.62 17.9 118.54C17.6333 118.447 17.2733 118.4 16.82 118.4V117.6H22.88L27.54 129.26H27.62ZM43.5819 122.2C44.3819 122.2 45.1352 122.34 45.8419 122.62C46.5619 122.887 47.1885 123.26 47.7219 123.74C48.2685 124.22 48.6952 124.793 49.0019 125.46C49.3219 126.113 49.4819 126.833 49.4819 127.62C49.4819 128.433 49.3219 129.18 49.0019 129.86C48.6952 130.54 48.2685 131.127 47.7219 131.62C47.1885 132.113 46.5619 132.5 45.8419 132.78C45.1352 133.06 44.3819 133.2 43.5819 133.2C42.7952 133.2 42.0485 133.067 41.3419 132.8C40.6352 132.52 40.0152 132.133 39.4819 131.64C38.9485 131.147 38.5285 130.56 38.2219 129.88C37.9152 129.187 37.7619 128.433 37.7619 127.62C37.7619 126.833 37.9152 126.107 38.2219 125.44C38.5285 124.773 38.9485 124.2 39.4819 123.72C40.0152 123.24 40.6352 122.867 41.3419 122.6C42.0485 122.333 42.7952 122.2 43.5819 122.2ZM43.5819 123.36C43.1819 123.36 42.8152 123.467 42.4819 123.68C42.1485 123.88 41.8619 124.167 41.6219 124.54C41.3952 124.913 41.2152 125.367 41.0819 125.9C40.9619 126.42 40.9019 127 40.9019 127.64C40.9019 128.307 40.9619 128.907 41.0819 129.44C41.2152 129.973 41.3952 130.427 41.6219 130.8C41.8619 131.173 42.1419 131.467 42.4619 131.68C42.7952 131.88 43.1685 131.98 43.5819 131.98C43.9952 131.98 44.3685 131.88 44.7019 131.68C45.0485 131.467 45.3419 131.173 45.5819 130.8C45.8219 130.413 46.0085 129.953 46.1419 129.42C46.2752 128.887 46.3419 128.293 46.3419 127.64C46.3419 127 46.2752 126.42 46.1419 125.9C46.0085 125.38 45.8219 124.933 45.5819 124.56C45.3419 124.173 45.0485 123.88 44.7019 123.68C44.3685 123.467 43.9952 123.36 43.5819 123.36ZM53.965 129.74C53.965 130.287 53.9783 130.72 54.005 131.04C54.045 131.347 54.1183 131.587 54.225 131.76C54.345 131.92 54.5183 132.027 54.745 132.08C54.985 132.133 55.305 132.173 55.705 132.2V133H49.405V132.2C49.7917 132.173 50.0983 132.133 50.325 132.08C50.565 132.027 50.745 131.92 50.865 131.76C50.9983 131.6 51.085 131.373 51.125 131.08C51.165 130.787 51.185 130.387 51.185 129.88V127.38C51.185 126.593 51.1717 125.96 51.145 125.48C51.1183 124.987 51.085 124.653 51.045 124.48C51.005 124.307 50.9517 124.167 50.885 124.06C50.8183 123.94 50.7183 123.853 50.585 123.8C50.4517 123.733 50.285 123.693 50.085 123.68C49.885 123.653 49.6317 123.64 49.325 123.64V122.96L53.185 122.2L53.445 123.96H53.525C53.965 123.4 54.485 122.967 55.085 122.66C55.685 122.353 56.345 122.2 57.065 122.2C57.9183 122.2 58.605 122.32 59.125 122.56C59.6583 122.787 60.1317 123.173 60.545 123.72C60.7717 124.027 60.9717 124.427 61.145 124.92C61.3183 125.4 61.405 126.067 61.405 126.92V129.74C61.405 130.287 61.4183 130.72 61.445 131.04C61.485 131.347 61.5583 131.587 61.665 131.76C61.785 131.92 61.9583 132.027 62.185 132.08C62.4117 132.133 62.7183 132.173 63.105 132.2V133H56.845V132.2C57.245 132.187 57.5583 132.153 57.785 132.1C58.025 132.033 58.205 131.92 58.325 131.76C58.445 131.6 58.525 131.373 58.565 131.08C58.605 130.773 58.625 130.373 58.625 129.88V127.16C58.625 126.48 58.585 125.907 58.505 125.44C58.425 124.973 58.2917 124.6 58.105 124.32C57.9317 124.027 57.6983 123.82 57.405 123.7C57.1117 123.567 56.745 123.5 56.305 123.5C55.8783 123.5 55.5117 123.62 55.205 123.86C54.8983 124.1 54.6317 124.433 54.405 124.86C54.285 125.1 54.1783 125.413 54.085 125.8C54.005 126.173 53.965 126.567 53.965 126.98V129.74ZM73.8084 129.56L76.4084 122.9C76.6618 122.247 76.8618 121.713 77.0084 121.3C77.1684 120.887 77.2884 120.547 77.3684 120.28C77.4484 120.013 77.5018 119.8 77.5284 119.64C77.5551 119.48 77.5684 119.327 77.5684 119.18C77.5684 118.86 77.4484 118.653 77.2084 118.56C76.9684 118.453 76.4884 118.4 75.7684 118.4V117.6H81.4484V118.4C80.3418 118.4 79.5751 118.94 79.1484 120.02L73.8884 133.2H72.4084L67.6284 121.52C67.3618 120.893 67.1218 120.38 66.9084 119.98C66.6951 119.58 66.4684 119.267 66.2284 119.04C65.9884 118.8 65.7218 118.64 65.4284 118.56C65.1484 118.467 64.8151 118.42 64.4284 118.42V117.6H71.9884V118.42C71.6418 118.433 71.3484 118.453 71.1084 118.48C70.8818 118.507 70.7018 118.553 70.5684 118.62C70.4351 118.673 70.3418 118.753 70.2884 118.86C70.2351 118.953 70.2084 119.073 70.2084 119.22C70.2084 119.407 70.2418 119.627 70.3084 119.88C70.3751 120.133 70.4751 120.44 70.6084 120.8L73.8084 129.56ZM84.5892 129.72C84.5892 130.253 84.6092 130.68 84.6492 131C84.6892 131.32 84.7692 131.567 84.8892 131.74C85.0092 131.913 85.1826 132.033 85.4092 132.1C85.6359 132.153 85.9426 132.187 86.3292 132.2V133H80.0292V132.2C80.4026 132.187 80.7026 132.147 80.9292 132.08C81.1692 132 81.3492 131.88 81.4692 131.72C81.6026 131.547 81.6892 131.313 81.7292 131.02C81.7826 130.713 81.8092 130.327 81.8092 129.86V127.4C81.8092 126.627 81.7959 125.993 81.7692 125.5C81.7426 124.993 81.7092 124.647 81.6692 124.46C81.6026 124.127 81.4492 123.907 81.2092 123.8C80.9826 123.693 80.5626 123.64 79.9492 123.64V122.96L84.5892 122.2V129.72ZM81.6492 117.96C81.6492 117.52 81.7959 117.153 82.0892 116.86C82.3959 116.553 82.7626 116.4 83.1892 116.4C83.6292 116.4 83.9959 116.553 84.2892 116.86C84.5959 117.153 84.7492 117.52 84.7492 117.96C84.7492 118.387 84.5959 118.753 84.2892 119.06C83.9959 119.353 83.6292 119.5 83.1892 119.5C82.7626 119.5 82.3959 119.353 82.0892 119.06C81.7959 118.753 81.6492 118.387 81.6492 117.96ZM96.0758 131.14C94.8624 132.513 93.3491 133.2 91.5358 133.2C90.7091 133.2 89.9558 133.073 89.2758 132.82C88.6091 132.553 88.0358 132.187 87.5558 131.72C87.0758 131.24 86.7024 130.673 86.4358 130.02C86.1691 129.367 86.0358 128.64 86.0358 127.84C86.0358 127.013 86.1758 126.26 86.4558 125.58C86.7358 124.887 87.1291 124.293 87.6358 123.8C88.1558 123.293 88.7624 122.9 89.4558 122.62C90.1624 122.34 90.9358 122.2 91.7758 122.2C93.1891 122.2 94.2891 122.58 95.0758 123.34C95.8624 124.1 96.2558 125.167 96.2558 126.54C96.2558 126.753 96.2224 126.887 96.1558 126.94C96.0891 126.98 95.9024 127 95.5958 127H89.1558C89.1024 127.12 89.0758 127.34 89.0758 127.66C89.0758 128.967 89.3558 130 89.9158 130.76C90.4891 131.52 91.2624 131.9 92.2358 131.9C92.7958 131.9 93.3491 131.773 93.8958 131.52C94.4558 131.267 94.9958 130.907 95.5158 130.44L96.0758 131.14ZM92.1958 125.88C92.7291 125.88 93.0691 125.853 93.2158 125.8C93.3758 125.733 93.4558 125.587 93.4558 125.36C93.4558 124.773 93.2891 124.293 92.9558 123.92C92.6224 123.547 92.2024 123.36 91.6958 123.36C91.1224 123.36 90.6091 123.6 90.1558 124.08C89.7158 124.547 89.4291 125.147 89.2958 125.88H92.1958ZM104.875 125.68C104.875 125.147 104.862 124.727 104.835 124.42C104.808 124.1 104.735 123.86 104.615 123.7C104.495 123.527 104.315 123.413 104.075 123.36C103.848 123.293 103.535 123.24 103.135 123.2V122.4H107.655V128.46C107.655 129.273 107.662 129.913 107.675 130.38C107.702 130.833 107.742 131.173 107.795 131.4C107.835 131.573 107.882 131.713 107.935 131.82C107.988 131.913 108.075 131.993 108.195 132.06C108.315 132.113 108.475 132.153 108.675 132.18C108.888 132.193 109.162 132.2 109.495 132.2V132.98L105.515 133.22L105.295 131.44H105.215C104.868 132 104.382 132.433 103.755 132.74C103.128 133.047 102.428 133.2 101.655 133.2C100.228 133.2 99.1417 132.693 98.395 131.68C97.8217 130.907 97.535 129.807 97.535 128.38V125.68C97.535 125.133 97.5217 124.707 97.495 124.4C97.4683 124.08 97.395 123.84 97.275 123.68C97.1683 123.52 97.0017 123.413 96.775 123.36C96.5483 123.293 96.235 123.24 95.835 123.2V122.4H100.315V128.06C100.315 129.407 100.482 130.387 100.815 131C101.148 131.6 101.682 131.9 102.415 131.9C103.202 131.9 103.808 131.54 104.235 130.82C104.662 130.127 104.875 129.107 104.875 127.76V125.68ZM116.475 124.92C116.755 124.56 116.941 124.307 117.035 124.16C117.128 124.013 117.175 123.867 117.175 123.72C117.175 123.533 117.095 123.4 116.935 123.32C116.788 123.24 116.535 123.2 116.175 123.2V122.4H120.775V123.2C120.521 123.213 120.295 123.24 120.095 123.28C119.895 123.32 119.695 123.4 119.495 123.52C119.295 123.627 119.088 123.78 118.875 123.98C118.661 124.18 118.415 124.44 118.135 124.76L116.095 127.12L119.255 131.18C119.561 131.58 119.861 131.853 120.155 132C120.448 132.133 120.815 132.2 121.255 132.2V133H114.895V132.2C115.281 132.2 115.548 132.167 115.695 132.1C115.855 132.033 115.935 131.907 115.935 131.72C115.935 131.573 115.888 131.42 115.795 131.26C115.701 131.087 115.561 130.867 115.375 130.6L114.215 129L113.335 130.06C113.108 130.34 112.928 130.567 112.795 130.74C112.661 130.913 112.561 131.053 112.495 131.16C112.428 131.267 112.381 131.353 112.355 131.42C112.341 131.473 112.335 131.527 112.335 131.58C112.335 131.807 112.428 131.967 112.615 132.06C112.815 132.153 113.128 132.2 113.555 132.2V133H108.535V132.2C108.961 132.2 109.375 132.14 109.775 132.02C110.175 131.887 110.488 131.687 110.715 131.42L113.495 128.16L110.155 123.92C109.901 123.6 109.675 123.4 109.475 123.32C109.288 123.24 109.028 123.2 108.695 123.2V122.4H114.795V123.2C114.115 123.2 113.775 123.387 113.775 123.76C113.775 123.893 113.848 124.067 113.995 124.28L115.415 126.28L116.475 124.92ZM132.342 133.2C131.142 133.2 130.055 133.027 129.082 132.68C128.122 132.32 127.302 131.813 126.622 131.16C125.955 130.493 125.435 129.693 125.062 128.76C124.702 127.813 124.522 126.753 124.522 125.58C124.522 124.367 124.715 123.26 125.102 122.26C125.502 121.247 126.055 120.38 126.762 119.66C127.469 118.94 128.315 118.387 129.302 118C130.289 117.6 131.382 117.4 132.582 117.4C133.409 117.4 134.195 117.513 134.942 117.74C135.689 117.967 136.495 118.333 137.362 118.84L137.742 117.6H138.462V122.66H137.462C137.195 121.407 136.655 120.433 135.842 119.74C135.042 119.047 134.035 118.7 132.822 118.7C131.289 118.7 130.095 119.293 129.242 120.48C128.402 121.653 127.982 123.3 127.982 125.42C127.982 127.5 128.395 129.093 129.222 130.2C130.049 131.307 131.249 131.86 132.822 131.86C133.955 131.86 134.835 131.573 135.462 131C136.102 130.413 136.422 129.607 136.422 128.58C136.422 127.967 136.262 127.52 135.942 127.24C135.622 126.947 135.082 126.767 134.322 126.7V125.9H140.802V126.7C140.149 126.7 139.695 126.847 139.442 127.14C139.189 127.42 139.062 127.933 139.062 128.68V131.34C138.769 131.34 138.522 131.353 138.322 131.38C138.122 131.393 137.922 131.433 137.722 131.5C137.535 131.553 137.322 131.647 137.082 131.78C136.842 131.913 136.542 132.087 136.182 132.3C135.155 132.9 133.875 133.2 132.342 133.2ZM144.862 129.9C144.862 130.42 144.882 130.833 144.922 131.14C144.975 131.433 145.075 131.66 145.222 131.82C145.368 131.98 145.582 132.087 145.862 132.14C146.142 132.18 146.515 132.2 146.982 132.2V133H140.302V132.2C140.702 132.173 141.022 132.133 141.262 132.08C141.502 132.027 141.682 131.92 141.802 131.76C141.922 131.6 141.995 131.373 142.022 131.08C142.062 130.773 142.082 130.367 142.082 129.86V127.42C142.082 126.593 142.062 125.933 142.022 125.44C141.982 124.947 141.895 124.567 141.762 124.3C141.628 124.033 141.435 123.86 141.182 123.78C140.942 123.687 140.622 123.64 140.222 123.64V122.94L144.222 122.2L144.542 124.5H144.622C144.982 123.793 145.455 123.233 146.042 122.82C146.628 122.407 147.248 122.2 147.902 122.2C148.408 122.2 148.822 122.327 149.142 122.58C149.462 122.833 149.622 123.153 149.622 123.54C149.622 123.967 149.495 124.327 149.242 124.62C149.002 124.913 148.668 125.06 148.242 125.06C148.042 125.06 147.862 125.02 147.702 124.94C147.542 124.86 147.395 124.773 147.262 124.68C147.142 124.573 147.015 124.48 146.882 124.4C146.762 124.307 146.635 124.26 146.502 124.26C146.248 124.26 146.008 124.427 145.782 124.76C145.555 125.093 145.368 125.54 145.222 126.1C145.115 126.5 145.028 126.953 144.962 127.46C144.895 127.953 144.862 128.447 144.862 128.94V129.9ZM153.402 129.72C153.402 130.253 153.422 130.68 153.462 131C153.502 131.32 153.582 131.567 153.702 131.74C153.822 131.913 153.996 132.033 154.222 132.1C154.449 132.153 154.756 132.187 155.142 132.2V133H148.842V132.2C149.216 132.187 149.516 132.147 149.742 132.08C149.982 132 150.162 131.88 150.282 131.72C150.416 131.547 150.502 131.313 150.542 131.02C150.596 130.713 150.622 130.327 150.622 129.86V127.4C150.622 126.627 150.609 125.993 150.582 125.5C150.556 124.993 150.522 124.647 150.482 124.46C150.416 124.127 150.262 123.907 150.022 123.8C149.796 123.693 149.376 123.64 148.762 123.64V122.96L153.402 122.2V129.72ZM150.462 117.96C150.462 117.52 150.609 117.153 150.902 116.86C151.209 116.553 151.576 116.4 152.002 116.4C152.442 116.4 152.809 116.553 153.102 116.86C153.409 117.153 153.562 117.52 153.562 117.96C153.562 118.387 153.409 118.753 153.102 119.06C152.809 119.353 152.442 119.5 152.002 119.5C151.576 119.5 151.209 119.353 150.902 119.06C150.609 118.753 150.462 118.387 150.462 117.96ZM159.249 129.7C159.249 130.26 159.262 130.7 159.289 131.02C159.316 131.34 159.389 131.587 159.509 131.76C159.629 131.92 159.802 132.027 160.029 132.08C160.256 132.133 160.569 132.173 160.969 132.2V133H154.649V132.2C155.049 132.173 155.369 132.133 155.609 132.08C155.849 132.027 156.029 131.92 156.149 131.76C156.269 131.6 156.349 131.373 156.389 131.08C156.429 130.773 156.449 130.367 156.449 129.86V127.38C156.449 126.62 156.436 125.987 156.409 125.48C156.396 124.973 156.362 124.627 156.309 124.44C156.269 124.267 156.216 124.133 156.149 124.04C156.096 123.933 156.002 123.853 155.869 123.8C155.749 123.733 155.589 123.693 155.389 123.68C155.189 123.653 154.929 123.64 154.609 123.64V122.96L158.469 122.2L158.709 123.94H158.829C159.389 123.313 159.949 122.867 160.509 122.6C161.082 122.333 161.742 122.2 162.489 122.2C163.369 122.2 164.096 122.353 164.669 122.66C165.242 122.967 165.676 123.407 165.969 123.98H166.049C166.529 123.42 167.102 122.987 167.769 122.68C168.436 122.36 169.149 122.2 169.909 122.2C170.709 122.2 171.402 122.3 171.989 122.5C172.589 122.7 173.056 122.987 173.389 123.36C173.656 123.667 173.849 124.067 173.969 124.56C174.102 125.053 174.169 125.74 174.169 126.62V129.7C174.169 130.247 174.182 130.68 174.209 131C174.249 131.32 174.329 131.567 174.449 131.74C174.569 131.913 174.742 132.027 174.969 132.08C175.196 132.133 175.509 132.173 175.909 132.2V133H169.589V132.2C169.989 132.187 170.302 132.153 170.529 132.1C170.769 132.033 170.949 131.92 171.069 131.76C171.202 131.587 171.282 131.353 171.309 131.06C171.349 130.767 171.369 130.367 171.369 129.86V127.24C171.369 126.547 171.329 125.96 171.249 125.48C171.169 125 171.042 124.613 170.869 124.32C170.696 124.027 170.462 123.82 170.169 123.7C169.889 123.567 169.542 123.5 169.129 123.5C168.662 123.5 168.276 123.613 167.969 123.84C167.676 124.067 167.429 124.36 167.229 124.72C166.882 125.347 166.709 126.127 166.709 127.06V129.7C166.709 130.247 166.722 130.68 166.749 131C166.776 131.32 166.849 131.567 166.969 131.74C167.089 131.913 167.262 132.027 167.489 132.08C167.729 132.133 168.056 132.173 168.469 132.2V133H162.129V132.2C162.529 132.173 162.842 132.133 163.069 132.08C163.309 132.027 163.489 131.92 163.609 131.76C163.742 131.6 163.822 131.373 163.849 131.08C163.889 130.773 163.909 130.367 163.909 129.86V127.24C163.909 126.547 163.869 125.96 163.789 125.48C163.709 125 163.576 124.613 163.389 124.32C163.216 124.027 162.982 123.82 162.689 123.7C162.396 123.567 162.029 123.5 161.589 123.5C161.149 123.5 160.782 123.607 160.489 123.82C160.209 124.033 159.976 124.32 159.789 124.68C159.616 125 159.482 125.367 159.389 125.78C159.296 126.193 159.249 126.62 159.249 127.06V129.7ZM181.378 122.2C182.178 122.2 182.931 122.34 183.638 122.62C184.358 122.887 184.985 123.26 185.518 123.74C186.065 124.22 186.491 124.793 186.798 125.46C187.118 126.113 187.278 126.833 187.278 127.62C187.278 128.433 187.118 129.18 186.798 129.86C186.491 130.54 186.065 131.127 185.518 131.62C184.985 132.113 184.358 132.5 183.638 132.78C182.931 133.06 182.178 133.2 181.378 133.2C180.591 133.2 179.845 133.067 179.138 132.8C178.431 132.52 177.811 132.133 177.278 131.64C176.745 131.147 176.325 130.56 176.018 129.88C175.711 129.187 175.558 128.433 175.558 127.62C175.558 126.833 175.711 126.107 176.018 125.44C176.325 124.773 176.745 124.2 177.278 123.72C177.811 123.24 178.431 122.867 179.138 122.6C179.845 122.333 180.591 122.2 181.378 122.2ZM181.378 123.36C180.978 123.36 180.611 123.467 180.278 123.68C179.945 123.88 179.658 124.167 179.418 124.54C179.191 124.913 179.011 125.367 178.878 125.9C178.758 126.42 178.698 127 178.698 127.64C178.698 128.307 178.758 128.907 178.878 129.44C179.011 129.973 179.191 130.427 179.418 130.8C179.658 131.173 179.938 131.467 180.258 131.68C180.591 131.88 180.965 131.98 181.378 131.98C181.791 131.98 182.165 131.88 182.498 131.68C182.845 131.467 183.138 131.173 183.378 130.8C183.618 130.413 183.805 129.953 183.938 129.42C184.071 128.887 184.138 128.293 184.138 127.64C184.138 127 184.071 126.42 183.938 125.9C183.805 125.38 183.618 124.933 183.378 124.56C183.138 124.173 182.845 123.88 182.498 123.68C182.165 123.467 181.791 123.36 181.378 123.36ZM191.761 129.72C191.761 130.253 191.781 130.68 191.821 131C191.861 131.32 191.941 131.567 192.061 131.74C192.181 131.913 192.354 132.033 192.581 132.1C192.808 132.153 193.114 132.187 193.501 132.2V133H187.201V132.2C187.574 132.187 187.874 132.147 188.101 132.08C188.341 132 188.521 131.88 188.641 131.72C188.774 131.547 188.861 131.313 188.901 131.02C188.954 130.713 188.981 130.327 188.981 129.86V127.4C188.981 126.627 188.968 125.993 188.941 125.5C188.914 124.993 188.881 124.647 188.841 124.46C188.774 124.127 188.621 123.907 188.381 123.8C188.154 123.693 187.734 123.64 187.121 123.64V122.96L191.761 122.2V129.72ZM188.821 117.96C188.821 117.52 188.968 117.153 189.261 116.86C189.568 116.553 189.934 116.4 190.361 116.4C190.801 116.4 191.168 116.553 191.461 116.86C191.768 117.153 191.921 117.52 191.921 117.96C191.921 118.387 191.768 118.753 191.461 119.06C191.168 119.353 190.801 119.5 190.361 119.5C189.934 119.5 189.568 119.353 189.261 119.06C188.968 118.753 188.821 118.387 188.821 117.96ZM197.608 129.9C197.608 130.42 197.628 130.833 197.668 131.14C197.721 131.433 197.821 131.66 197.968 131.82C198.114 131.98 198.328 132.087 198.608 132.14C198.888 132.18 199.261 132.2 199.728 132.2V133H193.048V132.2C193.448 132.173 193.768 132.133 194.008 132.08C194.248 132.027 194.428 131.92 194.548 131.76C194.668 131.6 194.741 131.373 194.768 131.08C194.808 130.773 194.828 130.367 194.828 129.86V127.42C194.828 126.593 194.808 125.933 194.768 125.44C194.728 124.947 194.641 124.567 194.508 124.3C194.374 124.033 194.181 123.86 193.928 123.78C193.688 123.687 193.368 123.64 192.968 123.64V122.94L196.968 122.2L197.288 124.5H197.368C197.728 123.793 198.201 123.233 198.788 122.82C199.374 122.407 199.994 122.2 200.648 122.2C201.154 122.2 201.568 122.327 201.888 122.58C202.208 122.833 202.368 123.153 202.368 123.54C202.368 123.967 202.241 124.327 201.988 124.62C201.748 124.913 201.414 125.06 200.988 125.06C200.788 125.06 200.608 125.02 200.448 124.94C200.288 124.86 200.141 124.773 200.008 124.68C199.888 124.573 199.761 124.48 199.628 124.4C199.508 124.307 199.381 124.26 199.248 124.26C198.994 124.26 198.754 124.427 198.528 124.76C198.301 125.093 198.114 125.54 197.968 126.1C197.861 126.5 197.774 126.953 197.708 127.46C197.641 127.953 197.608 128.447 197.608 128.94V129.9ZM211.691 131.14C210.478 132.513 208.965 133.2 207.151 133.2C206.325 133.2 205.571 133.073 204.891 132.82C204.225 132.553 203.651 132.187 203.171 131.72C202.691 131.24 202.318 130.673 202.051 130.02C201.785 129.367 201.651 128.64 201.651 127.84C201.651 127.013 201.791 126.26 202.071 125.58C202.351 124.887 202.745 124.293 203.251 123.8C203.771 123.293 204.378 122.9 205.071 122.62C205.778 122.34 206.551 122.2 207.391 122.2C208.805 122.2 209.905 122.58 210.691 123.34C211.478 124.1 211.871 125.167 211.871 126.54C211.871 126.753 211.838 126.887 211.771 126.94C211.705 126.98 211.518 127 211.211 127H204.771C204.718 127.12 204.691 127.34 204.691 127.66C204.691 128.967 204.971 130 205.531 130.76C206.105 131.52 206.878 131.9 207.851 131.9C208.411 131.9 208.965 131.773 209.511 131.52C210.071 131.267 210.611 130.907 211.131 130.44L211.691 131.14ZM207.811 125.88C208.345 125.88 208.685 125.853 208.831 125.8C208.991 125.733 209.071 125.587 209.071 125.36C209.071 124.773 208.905 124.293 208.571 123.92C208.238 123.547 207.818 123.36 207.311 123.36C206.738 123.36 206.225 123.6 205.771 124.08C205.331 124.547 205.045 125.147 204.911 125.88H207.811Z" fill="#2C1810"/>
<path d="M221 116.375H217C216.655 116.375 216.375 116.655 216.375 117V133C216.375 133.345 216.655 133.625 217 133.625H221C221.345 133.625 221.625 133.345 221.625 133V117C221.625 116.655 221.345 116.375 221 116.375Z" stroke="#2C1810" stroke-width="0.75"/>
<path d="M227.002 116.173L222.847 117.286C222.513 117.376 222.315 117.718 222.405 118.052L226.546 133.507C226.635 133.84 226.978 134.038 227.311 133.948L231.467 132.835C231.8 132.746 231.998 132.403 231.909 132.069L227.768 116.615C227.679 116.281 227.336 116.083 227.002 116.173Z" stroke="#2C1810" stroke-width="0.75"/>
</svg>
